<mxfile host="app.diagrams.net" modified="2024-06-03T02:48:21.082Z" agent="Mozilla/5.0 (Windows NT 10.0; Win64; x64) AppleWebKit/537.36 (KHTML, like Gecko) Chrome/125.0.0.0 Safari/537.36" etag="pconyJrzNN_5C9UYZN-L" version="24.4.13" type="google">
  <diagram name="Page-1" id="SRdPGHGJcZHZ4POufb9A">
    <mxGraphModel grid="1" page="1" gridSize="10" guides="1" tooltips="1" connect="1" arrows="1" fold="1" pageScale="1" pageWidth="850" pageHeight="1100" math="0" shadow="0">
      <root>
        <mxCell id="0" />
        <mxCell id="1" parent="0" />
        <mxCell id="oovH8c1j4VzMBCMacT3T-7" style="edgeStyle=orthogonalEdgeStyle;rounded=0;orthogonalLoop=1;jettySize=auto;html=1;" edge="1" parent="1" source="oovH8c1j4VzMBCMacT3T-1" target="oovH8c1j4VzMBCMacT3T-2">
          <mxGeometry relative="1" as="geometry">
            <mxPoint x="250" y="250" as="targetPoint" />
          </mxGeometry>
        </mxCell>
        <mxCell id="oovH8c1j4VzMBCMacT3T-1" value="Mulai" style="ellipse;whiteSpace=wrap;html=1;" vertex="1" parent="1">
          <mxGeometry x="-160" y="210" width="120" height="80" as="geometry" />
        </mxCell>
        <mxCell id="oovH8c1j4VzMBCMacT3T-2" value="INPUT kata" style="shape=parallelogram;perimeter=parallelogramPerimeter;whiteSpace=wrap;html=1;fixedSize=1;" vertex="1" parent="1">
          <mxGeometry x="10" y="220" width="120" height="60" as="geometry" />
        </mxCell>
        <mxCell id="noXK8eLQE9MVU0BMBf4w-1" style="edgeStyle=orthogonalEdgeStyle;rounded=0;orthogonalLoop=1;jettySize=auto;html=1;" edge="1" parent="1" source="oovH8c1j4VzMBCMacT3T-3" target="noXK8eLQE9MVU0BMBf4w-2">
          <mxGeometry relative="1" as="geometry">
            <mxPoint x="500" y="300" as="targetPoint" />
          </mxGeometry>
        </mxCell>
        <mxCell id="noXK8eLQE9MVU0BMBf4w-6" style="edgeStyle=orthogonalEdgeStyle;rounded=0;orthogonalLoop=1;jettySize=auto;html=1;" edge="1" parent="1" source="noXK8eLQE9MVU0BMBf4w-2" target="csXtI0HG57SU6vXajQzp-1">
          <mxGeometry relative="1" as="geometry">
            <mxPoint x="500" y="250" as="targetPoint" />
          </mxGeometry>
        </mxCell>
        <mxCell id="noXK8eLQE9MVU0BMBf4w-2" value="ba = 0&lt;div&gt;bb = 0&lt;/div&gt;" style="rounded=0;whiteSpace=wrap;html=1;" vertex="1" parent="1">
          <mxGeometry x="350" y="220" width="120" height="60" as="geometry" />
        </mxCell>
        <mxCell id="noXK8eLQE9MVU0BMBf4w-3" value="" style="edgeStyle=orthogonalEdgeStyle;rounded=0;orthogonalLoop=1;jettySize=auto;html=1;" edge="1" parent="1" source="oovH8c1j4VzMBCMacT3T-2" target="oovH8c1j4VzMBCMacT3T-3">
          <mxGeometry relative="1" as="geometry">
            <mxPoint x="440" y="250" as="targetPoint" />
            <mxPoint x="120" y="250" as="sourcePoint" />
          </mxGeometry>
        </mxCell>
        <mxCell id="oovH8c1j4VzMBCMacT3T-3" value="panjang = kata.length&lt;div&gt;hasil =&quot;&quot;&lt;/div&gt;&lt;div&gt;i = 0&lt;/div&gt;" style="rounded=0;whiteSpace=wrap;html=1;" vertex="1" parent="1">
          <mxGeometry x="180" y="220" width="120" height="60" as="geometry" />
        </mxCell>
        <mxCell id="csXtI0HG57SU6vXajQzp-3" style="edgeStyle=orthogonalEdgeStyle;rounded=0;orthogonalLoop=1;jettySize=auto;html=1;" edge="1" parent="1" source="csXtI0HG57SU6vXajQzp-1" target="csXtI0HG57SU6vXajQzp-2">
          <mxGeometry relative="1" as="geometry" />
        </mxCell>
        <mxCell id="csXtI0HG57SU6vXajQzp-4" value="TRUE" style="edgeLabel;html=1;align=center;verticalAlign=middle;resizable=0;points=[];" connectable="0" vertex="1" parent="csXtI0HG57SU6vXajQzp-3">
          <mxGeometry x="-0.3083" y="-3" relative="1" as="geometry">
            <mxPoint as="offset" />
          </mxGeometry>
        </mxCell>
        <mxCell id="csXtI0HG57SU6vXajQzp-27" style="edgeStyle=orthogonalEdgeStyle;rounded=0;orthogonalLoop=1;jettySize=auto;html=1;entryX=0.5;entryY=0;entryDx=0;entryDy=0;" edge="1" parent="1" source="csXtI0HG57SU6vXajQzp-1" target="csXtI0HG57SU6vXajQzp-19">
          <mxGeometry relative="1" as="geometry" />
        </mxCell>
        <mxCell id="csXtI0HG57SU6vXajQzp-28" value="FALSE" style="edgeLabel;html=1;align=center;verticalAlign=middle;resizable=0;points=[];" connectable="0" vertex="1" parent="csXtI0HG57SU6vXajQzp-27">
          <mxGeometry x="-0.0667" y="4" relative="1" as="geometry">
            <mxPoint as="offset" />
          </mxGeometry>
        </mxCell>
        <mxCell id="csXtI0HG57SU6vXajQzp-1" value="i =&amp;lt; panjang" style="rhombus;whiteSpace=wrap;html=1;" vertex="1" parent="1">
          <mxGeometry x="510" y="205" width="90" height="90" as="geometry" />
        </mxCell>
        <mxCell id="csXtI0HG57SU6vXajQzp-11" style="edgeStyle=orthogonalEdgeStyle;rounded=0;orthogonalLoop=1;jettySize=auto;html=1;entryX=0;entryY=0.5;entryDx=0;entryDy=0;" edge="1" parent="1" source="csXtI0HG57SU6vXajQzp-2" target="csXtI0HG57SU6vXajQzp-5">
          <mxGeometry relative="1" as="geometry">
            <mxPoint x="850" y="250" as="targetPoint" />
          </mxGeometry>
        </mxCell>
        <mxCell id="csXtI0HG57SU6vXajQzp-32" value="TRUE" style="edgeLabel;html=1;align=center;verticalAlign=middle;resizable=0;points=[];" connectable="0" vertex="1" parent="csXtI0HG57SU6vXajQzp-11">
          <mxGeometry x="-0.2167" y="2" relative="1" as="geometry">
            <mxPoint as="offset" />
          </mxGeometry>
        </mxCell>
        <mxCell id="csXtI0HG57SU6vXajQzp-30" style="edgeStyle=orthogonalEdgeStyle;rounded=0;orthogonalLoop=1;jettySize=auto;html=1;entryX=0.5;entryY=0;entryDx=0;entryDy=0;" edge="1" parent="1" source="csXtI0HG57SU6vXajQzp-2" target="csXtI0HG57SU6vXajQzp-18">
          <mxGeometry relative="1" as="geometry">
            <Array as="points">
              <mxPoint x="745" y="60" />
              <mxPoint x="555" y="60" />
            </Array>
          </mxGeometry>
        </mxCell>
        <mxCell id="csXtI0HG57SU6vXajQzp-31" value="FALSE" style="edgeLabel;html=1;align=center;verticalAlign=middle;resizable=0;points=[];" connectable="0" vertex="1" parent="csXtI0HG57SU6vXajQzp-30">
          <mxGeometry x="0.0396" relative="1" as="geometry">
            <mxPoint as="offset" />
          </mxGeometry>
        </mxCell>
        <mxCell id="csXtI0HG57SU6vXajQzp-2" value="kata[i]==&quot; &quot;&lt;div&gt;OR&lt;/div&gt;&lt;div&gt;i == panjang&amp;nbsp; -1&lt;/div&gt;" style="rhombus;whiteSpace=wrap;html=1;" vertex="1" parent="1">
          <mxGeometry x="670" y="195" width="150" height="110" as="geometry" />
        </mxCell>
        <mxCell id="csXtI0HG57SU6vXajQzp-12" style="edgeStyle=orthogonalEdgeStyle;rounded=0;orthogonalLoop=1;jettySize=auto;html=1;entryX=0;entryY=0.5;entryDx=0;entryDy=0;" edge="1" parent="1" source="csXtI0HG57SU6vXajQzp-5" target="csXtI0HG57SU6vXajQzp-6">
          <mxGeometry relative="1" as="geometry" />
        </mxCell>
        <mxCell id="csXtI0HG57SU6vXajQzp-5" value="ba = i" style="rounded=0;whiteSpace=wrap;html=1;" vertex="1" parent="1">
          <mxGeometry x="880" y="220" width="120" height="60" as="geometry" />
        </mxCell>
        <mxCell id="csXtI0HG57SU6vXajQzp-13" style="edgeStyle=orthogonalEdgeStyle;rounded=0;orthogonalLoop=1;jettySize=auto;html=1;entryX=0;entryY=0.5;entryDx=0;entryDy=0;" edge="1" parent="1" source="csXtI0HG57SU6vXajQzp-6" target="csXtI0HG57SU6vXajQzp-7">
          <mxGeometry relative="1" as="geometry" />
        </mxCell>
        <mxCell id="csXtI0HG57SU6vXajQzp-33" value="TRUE" style="edgeLabel;html=1;align=center;verticalAlign=middle;resizable=0;points=[];" connectable="0" vertex="1" parent="csXtI0HG57SU6vXajQzp-13">
          <mxGeometry x="-0.0667" y="2" relative="1" as="geometry">
            <mxPoint as="offset" />
          </mxGeometry>
        </mxCell>
        <mxCell id="csXtI0HG57SU6vXajQzp-16" style="edgeStyle=orthogonalEdgeStyle;rounded=0;orthogonalLoop=1;jettySize=auto;html=1;entryX=0.5;entryY=0;entryDx=0;entryDy=0;" edge="1" parent="1" source="csXtI0HG57SU6vXajQzp-6" target="csXtI0HG57SU6vXajQzp-8">
          <mxGeometry relative="1" as="geometry" />
        </mxCell>
        <mxCell id="csXtI0HG57SU6vXajQzp-34" value="FALSE" style="edgeLabel;html=1;align=center;verticalAlign=middle;resizable=0;points=[];" connectable="0" vertex="1" parent="csXtI0HG57SU6vXajQzp-16">
          <mxGeometry x="-0.1222" y="-1" relative="1" as="geometry">
            <mxPoint as="offset" />
          </mxGeometry>
        </mxCell>
        <mxCell id="csXtI0HG57SU6vXajQzp-6" value="ba &amp;gt; bb" style="rhombus;whiteSpace=wrap;html=1;" vertex="1" parent="1">
          <mxGeometry x="1050" y="210" width="80" height="80" as="geometry" />
        </mxCell>
        <mxCell id="csXtI0HG57SU6vXajQzp-17" style="edgeStyle=orthogonalEdgeStyle;rounded=0;orthogonalLoop=1;jettySize=auto;html=1;entryX=0.5;entryY=0;entryDx=0;entryDy=0;" edge="1" parent="1" source="csXtI0HG57SU6vXajQzp-7" target="csXtI0HG57SU6vXajQzp-9">
          <mxGeometry relative="1" as="geometry">
            <Array as="points">
              <mxPoint x="1250" y="90" />
              <mxPoint x="1090" y="90" />
            </Array>
          </mxGeometry>
        </mxCell>
        <mxCell id="csXtI0HG57SU6vXajQzp-7" value="hasil = hasil + kata[bb]" style="rounded=0;whiteSpace=wrap;html=1;" vertex="1" parent="1">
          <mxGeometry x="1190" y="220" width="120" height="60" as="geometry" />
        </mxCell>
        <mxCell id="csXtI0HG57SU6vXajQzp-8" value="i = i +1" style="rounded=0;whiteSpace=wrap;html=1;" vertex="1" parent="1">
          <mxGeometry x="1030" y="350" width="120" height="60" as="geometry" />
        </mxCell>
        <mxCell id="csXtI0HG57SU6vXajQzp-15" style="edgeStyle=orthogonalEdgeStyle;rounded=0;orthogonalLoop=1;jettySize=auto;html=1;entryX=0.5;entryY=0;entryDx=0;entryDy=0;" edge="1" parent="1" source="csXtI0HG57SU6vXajQzp-9" target="csXtI0HG57SU6vXajQzp-6">
          <mxGeometry relative="1" as="geometry" />
        </mxCell>
        <mxCell id="csXtI0HG57SU6vXajQzp-9" value="bb = bb + 1" style="rounded=0;whiteSpace=wrap;html=1;" vertex="1" parent="1">
          <mxGeometry x="1030" y="110" width="120" height="60" as="geometry" />
        </mxCell>
        <mxCell id="csXtI0HG57SU6vXajQzp-10" style="rounded=0;orthogonalLoop=1;jettySize=auto;html=1;entryX=0.8;entryY=0.773;entryDx=0;entryDy=0;entryPerimeter=0;" edge="1" parent="1" source="csXtI0HG57SU6vXajQzp-8" target="csXtI0HG57SU6vXajQzp-2">
          <mxGeometry relative="1" as="geometry" />
        </mxCell>
        <mxCell id="csXtI0HG57SU6vXajQzp-26" style="edgeStyle=orthogonalEdgeStyle;rounded=0;orthogonalLoop=1;jettySize=auto;html=1;entryX=0.5;entryY=0;entryDx=0;entryDy=0;" edge="1" parent="1" source="csXtI0HG57SU6vXajQzp-18" target="csXtI0HG57SU6vXajQzp-1">
          <mxGeometry relative="1" as="geometry" />
        </mxCell>
        <mxCell id="csXtI0HG57SU6vXajQzp-18" value="i = i + 1" style="rounded=0;whiteSpace=wrap;html=1;" vertex="1" parent="1">
          <mxGeometry x="495" y="80" width="120" height="60" as="geometry" />
        </mxCell>
        <mxCell id="csXtI0HG57SU6vXajQzp-25" style="edgeStyle=orthogonalEdgeStyle;rounded=0;orthogonalLoop=1;jettySize=auto;html=1;entryX=0.5;entryY=0;entryDx=0;entryDy=0;" edge="1" parent="1" source="csXtI0HG57SU6vXajQzp-19" target="csXtI0HG57SU6vXajQzp-20">
          <mxGeometry relative="1" as="geometry" />
        </mxCell>
        <mxCell id="csXtI0HG57SU6vXajQzp-19" value="OUTPUT hasil&amp;nbsp;" style="shape=parallelogram;perimeter=parallelogramPerimeter;whiteSpace=wrap;html=1;fixedSize=1;" vertex="1" parent="1">
          <mxGeometry x="480" y="340" width="150" height="70" as="geometry" />
        </mxCell>
        <mxCell id="csXtI0HG57SU6vXajQzp-20" value="end" style="ellipse;whiteSpace=wrap;html=1;" vertex="1" parent="1">
          <mxGeometry x="495" y="460" width="120" height="80" as="geometry" />
        </mxCell>
      </root>
    </mxGraphModel>
  </diagram>
</mxfile>
